<svg width="24" height="24" viewBox="0 0 24 24" fill="none" xmlns="http://www.w3.org/2000/svg">
<g id="Copyright 1" clip-path="url(#clip0_33_263)">
<g id="Group">
<path id="Vector" d="M11.9998 0.00115967C5.38347 0.00115967 0 5.38195 0 12C0 18.6153 5.38347 23.9988 11.9998 23.9988C18.6169 23.9988 24 18.6153 24 12C24 5.38195 18.6169 0.00115967 11.9998 0.00115967ZM11.9998 21.3255C6.85691 21.3255 2.67335 17.1422 2.67335 12C2.67335 6.85565 6.85691 2.67235 11.9998 2.67235C17.1432 2.67235 21.3268 6.85572 21.3268 12C21.3267 17.1422 17.1432 21.3255 11.9998 21.3255Z" fill="#FEFBFB" fill-opacity="0.7"/>
<path id="Vector_2" d="M15.9385 14.1736C15.1719 15.4891 13.7465 16.3051 12.2186 16.3051C9.84584 16.3051 7.91313 14.3728 7.91313 12C7.91313 9.62528 9.84584 7.69237 12.2186 7.69237C13.7465 7.69237 15.1719 8.51138 15.9385 9.82422L16.0375 9.9958H18.9296L18.756 9.53019C18.2527 8.19697 17.3697 7.06342 16.2008 6.25433C15.029 5.44316 13.6525 5.01282 12.2186 5.01282C8.36639 5.01282 5.2337 8.14818 5.2337 12C5.2337 15.8521 8.36639 18.9846 12.2186 18.9846C13.6525 18.9846 15.0289 18.5557 16.2008 17.7432C17.3697 16.934 18.2527 15.8008 18.756 14.4676L18.9296 14.0017H16.0375L15.9385 14.1736Z" fill="#FEFBFB" fill-opacity="0.7"/>
</g>
</g>
<defs>
<clipPath id="clip0_33_263">
<rect width="24" height="24" fill="white"/>
</clipPath>
</defs>
</svg>
