<svg width="96" height="30" viewBox="0 0 96 30" fill="none" xmlns="http://www.w3.org/2000/svg">
<g clip-path="url(#clip0_33_96)">
<path d="M4.37679 13.3767C2.39822 13.7328 0.958618 15.4547 0.958618 17.4651V25.2559H3.9943V16.788C3.9943 15.4299 4.23396 14.3115 4.95294 13.2729L4.37679 13.3767Z" fill="url(#paint0_linear_33_96)"/>
<path d="M16.5534 16.2049C18.532 15.8488 19.9716 14.1269 19.9716 12.1165V4.32568H16.9359V12.7936C16.9359 14.1517 16.6963 15.2701 15.9773 16.3087L16.5534 16.2049Z" fill="url(#paint1_linear_33_96)"/>
<path d="M18.853 6.88208C18.853 7.14676 18.6385 7.36133 18.3738 7.36133C18.1091 7.36133 17.8945 7.14676 17.8945 6.88208C17.8945 6.6174 18.1091 6.40283 18.3738 6.40283C18.6385 6.40283 18.853 6.6174 18.853 6.88208Z" fill="#CF07D3"/>
<path d="M2.8758 22.6995C2.8758 22.9642 2.66123 23.1787 2.39655 23.1787C2.13187 23.1787 1.9173 22.9642 1.9173 22.6995C1.9173 22.4348 2.13187 22.2202 2.39655 22.2202C2.66123 22.2202 2.8758 22.4348 2.8758 22.6995Z" fill="#CF07D3"/>
<path d="M14.5214 7.37853C14.3548 7.17283 14.3865 6.87105 14.5922 6.70448C14.7979 6.5379 15.0997 6.56962 15.2663 6.77532L16.6268 8.45547C16.6823 8.52404 16.6718 8.62463 16.6032 8.68016L16.1066 9.08229C16.038 9.1378 15.9374 9.12725 15.8819 9.05866L14.5214 7.37853Z" fill="url(#paint2_linear_33_96)"/>
<path d="M16.0832 9.30695C16.0277 9.2384 16.0383 9.1378 16.1068 9.08225L16.6034 8.68014C16.672 8.62461 16.7726 8.63519 16.8281 8.70376L18.1047 10.2802C18.2713 10.4859 18.2396 10.7877 18.0339 10.9543C17.8282 11.1209 17.5264 11.0892 17.3598 10.8835L16.0832 9.30695Z" fill="url(#paint3_linear_33_96)"/>
<path fill-rule="evenodd" clip-rule="evenodd" d="M8.94725 9.47629C8.94725 7.46589 10.3869 5.74403 12.3655 5.38788L12.9416 5.28418C12.2226 6.3227 11.983 7.44111 11.983 8.7992V16.1487H8.94725V9.47629ZM11.983 20.1051C11.983 22.1154 10.5434 23.8373 8.56475 24.1934L7.98865 24.2971C8.7076 23.2586 8.94725 22.1402 8.94725 20.7821V16.1487H11.983V20.1051Z" fill="url(#paint4_linear_33_96)"/>
<path d="M2.53846 19.3615C2.37189 19.1557 2.40361 18.8539 2.6093 18.6874C2.815 18.5208 3.11678 18.5525 3.28335 18.7582L4.64393 20.4384C4.69944 20.507 4.68888 20.6075 4.62029 20.6631L4.1237 21.0652C4.05514 21.1207 3.95454 21.1101 3.89902 21.0416L2.53846 19.3615Z" fill="url(#paint5_linear_33_96)"/>
<path d="M4.1003 21.2899C4.04478 21.2213 4.05535 21.1207 4.12392 21.0652L4.6205 20.6631C4.68909 20.6075 4.78969 20.6181 4.8452 20.6867L6.12181 22.2632C6.28838 22.4689 6.25668 22.7706 6.051 22.9372C5.84527 23.1038 5.54348 23.072 5.37691 22.8664L4.1003 21.2899Z" fill="url(#paint6_linear_33_96)"/>
<path d="M3.4972 15.8463C3.33063 15.6406 3.36235 15.3388 3.56804 15.1722C3.77374 15.0057 4.07552 15.0374 4.24209 15.2431L6.78687 18.3856C6.84238 18.4542 6.83178 18.5547 6.76324 18.6103L6.26662 19.0124C6.19808 19.0679 6.09748 19.0574 6.04197 18.9888L3.4972 15.8463Z" fill="url(#paint7_linear_33_96)"/>
<path d="M6.24332 19.2381C6.18777 19.1695 6.19837 19.0689 6.26691 19.0134L6.76353 18.6113C6.83207 18.5558 6.93267 18.5663 6.98822 18.6349L9.39263 21.6041C9.5592 21.8098 9.5275 22.1116 9.32177 22.2782C9.11609 22.4448 8.8143 22.413 8.64773 22.2073L6.24332 19.2381Z" fill="url(#paint8_linear_33_96)"/>
<path d="M11.8792 20.8789C11.5231 22.8574 9.80122 24.297 7.79087 24.297H0V21.2614H8.46796C9.82603 21.2614 10.9444 21.0217 11.983 20.3027L11.8792 20.8789Z" fill="url(#paint9_linear_33_96)"/>
<path d="M11.486 8.0172C11.3194 7.8115 11.3511 7.50972 11.5568 7.34315C11.7625 7.17657 12.0643 7.2083 12.2309 7.41399L14.7756 10.5565C14.8311 10.6251 14.8206 10.7257 14.752 10.7812L14.2554 11.1833C14.1868 11.2388 14.0863 11.2283 14.0307 11.1597L11.486 8.0172Z" fill="url(#paint10_linear_33_96)"/>
<path d="M14.232 11.409C14.1765 11.3405 14.1871 11.2399 14.2556 11.1843L14.7522 10.7822C14.8208 10.7267 14.9214 10.7372 14.9769 10.8058L17.3813 13.775C17.5479 13.9807 17.5162 14.2825 17.3105 14.4491C17.1048 14.6156 16.803 14.5839 16.6364 14.3783L14.232 11.409Z" fill="url(#paint11_linear_33_96)"/>
<path d="M6.53271 15.2071C6.36614 15.0015 6.39789 14.6997 6.60357 14.5331C6.80925 14.3665 7.11104 14.3982 7.27761 14.6039L8.63816 16.2841C8.69372 16.3527 8.68312 16.4533 8.61457 16.5088L8.11796 16.9109C8.04941 16.9664 7.94882 16.9559 7.89327 16.8873L6.53271 15.2071Z" fill="url(#paint12_linear_33_96)"/>
<path d="M8.09458 17.136C8.03903 17.0675 8.04963 16.9669 8.11817 16.9114L8.61479 16.5092C8.68333 16.4537 8.78393 16.4643 8.83948 16.5329L10.1161 18.1093C10.2827 18.3151 10.2509 18.6168 10.0452 18.7834C9.83955 18.95 9.53777 18.9183 9.3712 18.7126L8.09458 17.136Z" fill="url(#paint13_linear_33_96)"/>
<path d="M9.051 8.70235C9.40712 6.72378 11.129 5.28418 13.1394 5.28418H20.9302V8.31986H12.4623C11.1042 8.31986 9.9858 8.55952 8.94727 9.2785L9.051 8.70235Z" fill="url(#paint14_linear_33_96)"/>
<path d="M10.3673 11.5323C10.2008 11.3266 10.2325 11.0249 10.4381 10.8583C10.6439 10.6917 10.9457 10.7234 11.1122 10.9291L12.4728 12.6093C12.5283 12.6779 12.5177 12.7785 12.4491 12.834L11.9526 13.2361C11.884 13.2916 11.7834 13.281 11.7279 13.2125L10.3673 11.5323Z" fill="url(#paint15_linear_33_96)"/>
<path d="M11.9292 13.4613C11.8736 13.3927 11.8842 13.2921 11.9528 13.2366L12.4494 12.8344C12.5179 12.7789 12.6185 12.7895 12.6741 12.858L13.9507 14.4345C14.1172 14.6403 14.0855 14.942 13.8798 15.1086C13.6741 15.2752 13.3723 15.2434 13.2058 15.0378L11.9292 13.4613Z" fill="url(#paint16_linear_33_96)"/>
<path d="M10.8644 14.8709C10.8644 15.1355 10.6498 15.3501 10.3851 15.3501C10.1205 15.3501 9.90588 15.1355 9.90588 14.8709C9.90588 14.6062 10.1205 14.3916 10.3851 14.3916C10.6498 14.3916 10.8644 14.6062 10.8644 14.8709Z" fill="#22BADB"/>
<path fill-rule="evenodd" clip-rule="evenodd" d="M15.7795 16.3088C17.7899 16.3088 19.5117 14.8692 19.8679 12.8906L19.9716 12.3145C18.9331 13.0335 17.8146 13.2731 16.4566 13.2731H9.10705V16.3088H15.7795ZM5.15071 13.2731C3.14034 13.2731 1.41847 14.7127 1.06232 16.6913L0.958618 17.2674C1.99715 16.5485 3.11555 16.3088 4.47362 16.3088H9.10705V13.2731H5.15071Z" fill="url(#paint17_linear_33_96)"/>
</g>
<path d="M29.2333 22.1942C28.3067 22.1942 27.5027 21.9625 26.8214 21.4992C26.1401 21.0359 25.6121 20.3785 25.2373 19.5268C24.8694 18.6683 24.6855 17.6532 24.6855 16.4813V16.4711C24.6855 15.2924 24.8694 14.2772 25.2373 13.4256C25.6053 12.5739 26.1299 11.9164 26.8112 11.4531C27.4925 10.9898 28.2965 10.7582 29.2231 10.7582C29.7341 10.7582 30.2076 10.8399 30.6436 11.0035C31.0865 11.167 31.4748 11.3986 31.8087 11.6984C32.1494 11.9914 32.4185 12.3457 32.6161 12.7613H32.7489V6.78266H35.2937V22H32.7489V20.2217H32.6161C32.4117 20.6305 32.1425 20.9848 31.8087 21.2846C31.4817 21.5776 31.1001 21.8024 30.6641 21.9591C30.2348 22.1158 29.7579 22.1942 29.2333 22.1942ZM30.01 20.0582C30.5687 20.0582 31.0558 19.9152 31.4714 19.629C31.887 19.336 32.2073 18.9238 32.4321 18.3924C32.6569 17.8542 32.7694 17.2205 32.7694 16.4915V16.4711C32.7694 15.7352 32.6535 15.1016 32.4219 14.5702C32.197 14.0387 31.8768 13.63 31.4612 13.3438C31.0524 13.0508 30.5687 12.9043 30.01 12.9043C29.4513 12.9043 28.9642 13.0474 28.5486 13.3336C28.1398 13.6197 27.823 14.0285 27.5981 14.56C27.3801 15.0914 27.2711 15.7284 27.2711 16.4711V16.4813C27.2711 17.2239 27.3801 17.861 27.5981 18.3924C27.823 18.9238 28.1398 19.336 28.5486 19.629C28.9574 19.9152 29.4445 20.0582 30.01 20.0582ZM41.697 22.2248C40.75 22.2248 39.9358 22.0886 39.2545 21.816C38.5731 21.5367 38.0383 21.1518 37.6499 20.6612C37.2616 20.1706 37.0299 19.6052 36.955 18.9647V18.9136H39.4691L39.4793 18.9647C39.6019 19.3803 39.8472 19.7142 40.2151 19.9663C40.583 20.2183 41.0838 20.3444 41.7174 20.3444C42.1399 20.3444 42.5044 20.2865 42.811 20.1706C43.1244 20.0548 43.3662 19.8947 43.5366 19.6903C43.7137 19.4859 43.8023 19.2475 43.8023 18.9749V18.9545C43.8023 18.6275 43.6797 18.3583 43.4344 18.1471C43.1891 17.9359 42.7701 17.7622 42.1773 17.6259L40.3684 17.2273C39.6667 17.0706 39.0841 16.8526 38.6208 16.5733C38.1575 16.2939 37.8101 15.9499 37.5784 15.5411C37.3536 15.1323 37.2412 14.6587 37.2412 14.1205V14.1103C37.2412 13.4426 37.4251 12.8566 37.793 12.3525C38.1678 11.8415 38.6856 11.4463 39.3464 11.167C40.0141 10.8808 40.784 10.7377 41.6561 10.7377C42.5623 10.7377 43.339 10.8808 43.9862 11.167C44.6403 11.4463 45.1479 11.8313 45.509 12.3218C45.8701 12.8056 46.0745 13.354 46.1222 13.9672V14.0183H43.741L43.7308 13.9774C43.649 13.5891 43.431 13.2654 43.0767 13.0065C42.7292 12.7476 42.2557 12.6182 41.6561 12.6182C41.2814 12.6182 40.951 12.6761 40.6648 12.7919C40.3786 12.9009 40.1538 13.0576 39.9903 13.262C39.8336 13.4596 39.7552 13.6947 39.7552 13.9672V13.9876C39.7552 14.1989 39.8063 14.3862 39.9085 14.5497C40.0175 14.7133 40.1913 14.8563 40.4297 14.979C40.675 15.1016 40.9918 15.2072 41.3802 15.2958L43.1891 15.6944C44.2928 15.9464 45.0968 16.311 45.601 16.7879C46.112 17.2648 46.3675 17.9053 46.3675 18.7092V18.7194C46.3675 19.4212 46.1665 20.0344 45.7645 20.559C45.3625 21.0836 44.8072 21.4924 44.0987 21.7854C43.3969 22.0784 42.5963 22.2248 41.697 22.2248ZM52.1781 22.1124C50.9517 22.1124 50.0591 21.874 49.5005 21.397C48.9418 20.9201 48.6624 20.1366 48.6624 19.0465V12.9248H47.0068V10.9524H48.6624V8.21344H51.2481V10.9524H53.476V12.9248H51.2481V18.5866C51.2481 19.1384 51.3639 19.5302 51.5955 19.7619C51.834 19.9935 52.2053 20.1093 52.7095 20.1093C52.8662 20.1093 52.9991 20.1059 53.1081 20.0991C53.2239 20.0855 53.3465 20.0753 53.476 20.0685V22.0102C53.3057 22.0375 53.1081 22.0613 52.8832 22.0818C52.6652 22.1022 52.4302 22.1124 52.1781 22.1124ZM58.142 22.184C57.4334 22.184 56.8032 22.0477 56.2513 21.7752C55.6994 21.4958 55.2668 21.1075 54.9534 20.6101C54.64 20.1127 54.4832 19.5336 54.4832 18.8727V18.8523C54.4832 18.1914 54.6468 17.6259 54.9738 17.1558C55.3008 16.6857 55.7778 16.3144 56.4046 16.0418C57.0314 15.7693 57.7911 15.6058 58.6836 15.5513L62.8226 15.306V16.9821L59.0413 17.2273C58.36 17.2614 57.849 17.4113 57.5083 17.677C57.1745 17.9359 57.0076 18.2868 57.0076 18.7297V18.7501C57.0076 19.2134 57.1847 19.5779 57.539 19.8436C57.8933 20.1093 58.3498 20.2422 58.9084 20.2422C59.4126 20.2422 59.8623 20.14 60.2575 19.9356C60.6526 19.7312 60.9626 19.4553 61.1875 19.1078C61.4191 18.7603 61.5349 18.3686 61.5349 17.9325V14.5089C61.5349 13.9502 61.3578 13.5209 61.0035 13.2212C60.656 12.9146 60.1484 12.7613 59.4808 12.7613C58.888 12.7613 58.4077 12.8737 58.0398 13.0985C57.6787 13.3165 57.4402 13.6163 57.3244 13.9979L57.3141 14.049H54.9227L54.9329 13.957C55.0079 13.3165 55.2429 12.7579 55.6381 12.2809C56.0333 11.7972 56.5647 11.4191 57.2324 11.1465C57.9069 10.874 58.6904 10.7377 59.583 10.7377C60.5232 10.7377 61.3271 10.8876 61.9948 11.1874C62.6625 11.4804 63.1735 11.9062 63.5278 12.4649C63.8889 13.0168 64.0695 13.6742 64.0695 14.4373V22H61.5349V20.4159H61.4123C61.2079 20.7838 60.9422 21.1007 60.6152 21.3664C60.2881 21.6321 59.9168 21.8365 59.5012 21.9796C59.0856 22.1158 58.6325 22.184 58.142 22.184ZM70.9123 22.2248C69.8085 22.2248 68.8615 21.9932 68.0711 21.5299C67.2808 21.0666 66.671 20.4057 66.2418 19.5472C65.8194 18.682 65.6082 17.6532 65.6082 16.4608V16.4404C65.6082 15.2617 65.8194 14.2465 66.2418 13.3949C66.671 12.5432 67.2808 11.8892 68.0711 11.4327C68.8615 10.9694 69.8017 10.7377 70.8918 10.7377C71.8525 10.7377 72.6769 10.9081 73.365 11.2487C74.06 11.5894 74.6084 12.0561 75.0104 12.6488C75.4124 13.2416 75.6543 13.9127 75.736 14.6622V14.7235H73.3344L73.3241 14.6724C73.2151 14.1341 72.9562 13.6879 72.5474 13.3336C72.1454 12.9725 71.6004 12.7919 70.9123 12.7919C70.3468 12.7919 69.8596 12.9384 69.4508 13.2314C69.0488 13.5243 68.7388 13.9434 68.5208 14.4884C68.3028 15.0335 68.1938 15.6875 68.1938 16.4506V16.4711C68.1938 17.2478 68.3028 17.9121 68.5208 18.4639C68.7456 19.0158 69.0591 19.4382 69.461 19.7312C69.8698 20.0174 70.357 20.1604 70.9225 20.1604C71.5765 20.1604 72.1046 20.0037 72.5065 19.6903C72.9085 19.3701 73.1777 18.9204 73.3139 18.3413L73.3344 18.28L75.736 18.2698L75.7258 18.3515C75.6236 19.1078 75.3681 19.7789 74.9593 20.3648C74.5573 20.9439 74.0157 21.4004 73.3344 21.7343C72.653 22.0613 71.8457 22.2248 70.9123 22.2248ZM77.3156 22V6.78266H79.8501V22H77.3156ZM84.2651 22L80.5553 16.9821L82.3438 15.3162L87.2697 22H84.2651ZM79.5742 18.4231L79.5231 15.5104H79.983L84.0811 10.9524H87.0142L82.0883 16.1951L81.1787 16.7674L79.5742 18.4231Z" fill="#101920"/>
<defs>
<linearGradient id="paint0_linear_33_96" x1="1.67759" y1="26.1347" x2="1.75748" y2="13.2729" gradientUnits="userSpaceOnUse">
<stop offset="0.0428911" stop-color="#B019E6"/>
<stop offset="0.195594" stop-color="#9C2B9A"/>
<stop offset="0.430184" stop-color="#DC46D3"/>
<stop offset="0.627832" stop-color="#BD23CB"/>
<stop offset="1" stop-color="#570995"/>
</linearGradient>
<linearGradient id="paint1_linear_33_96" x1="18.5337" y1="15.5098" x2="18.4538" y2="3.52682" gradientUnits="userSpaceOnUse">
<stop stop-color="#F139D2"/>
<stop offset="0.303464" stop-color="#D143B9"/>
<stop offset="0.501827" stop-color="#8226C9"/>
<stop offset="1" stop-color="#BF15DB"/>
</linearGradient>
<linearGradient id="paint2_linear_33_96" x1="14.4185" y1="7.21243" x2="16.3066" y2="8.9551" gradientUnits="userSpaceOnUse">
<stop stop-color="#5991D5"/>
<stop offset="1" stop-color="#11519E"/>
</linearGradient>
<linearGradient id="paint3_linear_33_96" x1="16.5363" y1="9.91737" x2="17.8942" y2="9.67772" gradientUnits="userSpaceOnUse">
<stop stop-color="#C050E8"/>
<stop offset="1" stop-color="#8022A2"/>
</linearGradient>
<linearGradient id="paint4_linear_33_96" x1="10.4651" y1="5.28418" x2="10.4651" y2="24.2971" gradientUnits="userSpaceOnUse">
<stop stop-color="#3CBACB" stop-opacity="0.87"/>
<stop offset="0.154499" stop-color="#0886BC"/>
<stop offset="0.334093" stop-color="#0CBCC7"/>
<stop offset="0.60681" stop-color="#14D6F0"/>
<stop offset="0.786865" stop-color="#0CA0C0"/>
<stop offset="1" stop-color="#0665BC"/>
</linearGradient>
<linearGradient id="paint5_linear_33_96" x1="4.79284" y1="20.6223" x2="2.19833" y2="19.6913" gradientUnits="userSpaceOnUse">
<stop stop-color="#C050E8"/>
<stop offset="1" stop-color="#8022A2"/>
</linearGradient>
<linearGradient id="paint6_linear_33_96" x1="3.99431" y1="21.5808" x2="6.39055" y2="22.3795" gradientUnits="userSpaceOnUse">
<stop stop-color="#F77FF5"/>
<stop offset="1" stop-color="#A22CA0"/>
</linearGradient>
<linearGradient id="paint7_linear_33_96" x1="7.10941" y1="18.1456" x2="3.83452" y2="16.7079" gradientUnits="userSpaceOnUse">
<stop stop-color="#5991D5"/>
<stop offset="1" stop-color="#11519E"/>
</linearGradient>
<linearGradient id="paint8_linear_33_96" x1="5.83161" y1="19.0249" x2="9.74552" y2="21.9803" gradientUnits="userSpaceOnUse">
<stop stop-color="#77D3FB"/>
<stop offset="1" stop-color="#0A69C1"/>
</linearGradient>
<linearGradient id="paint9_linear_33_96" x1="11.983" y1="23.5781" x2="-0.319548" y2="23.5781" gradientUnits="userSpaceOnUse">
<stop stop-color="#055BAB" stop-opacity="0.49"/>
<stop offset="0.196658" stop-color="#0794C0" stop-opacity="0.88"/>
<stop offset="0.371414" stop-color="#05B4D0" stop-opacity="0.96"/>
<stop offset="0.536277" stop-color="#30C2D8" stop-opacity="0.86"/>
<stop offset="0.806654" stop-color="#1FBFD0" stop-opacity="0.8"/>
<stop offset="1" stop-color="#0CC6D9" stop-opacity="0.87"/>
</linearGradient>
<linearGradient id="paint10_linear_33_96" x1="15.0982" y1="10.3165" x2="11.8233" y2="8.87873" gradientUnits="userSpaceOnUse">
<stop stop-color="#5991D5"/>
<stop offset="1" stop-color="#11519E"/>
</linearGradient>
<linearGradient id="paint11_linear_33_96" x1="13.8203" y1="11.1959" x2="17.7342" y2="14.1513" gradientUnits="userSpaceOnUse">
<stop stop-color="#77D3FB"/>
<stop offset="1" stop-color="#0A69C1"/>
</linearGradient>
<linearGradient id="paint12_linear_33_96" x1="8.99694" y1="16.0888" x2="7.0864" y2="14.8077" gradientUnits="userSpaceOnUse">
<stop stop-color="#5991D5"/>
<stop offset="1" stop-color="#11519E"/>
</linearGradient>
<linearGradient id="paint13_linear_33_96" x1="7.98858" y1="17.427" x2="10.3848" y2="18.2257" gradientUnits="userSpaceOnUse">
<stop stop-color="#FD7EFC"/>
<stop offset="1" stop-color="#3D57B5"/>
</linearGradient>
<linearGradient id="paint14_linear_33_96" x1="8.94727" y1="7.20145" x2="22.0486" y2="7.20145" gradientUnits="userSpaceOnUse">
<stop stop-color="#0397C6" stop-opacity="0.73"/>
<stop offset="0.304027" stop-color="#31D0E1" stop-opacity="0.87"/>
<stop offset="0.526955" stop-color="#43E1ED" stop-opacity="0.82"/>
<stop offset="0.783942" stop-color="#1DB0C8" stop-opacity="0.71"/>
<stop offset="1" stop-color="#098A9F"/>
</linearGradient>
<linearGradient id="paint15_linear_33_96" x1="12.6217" y1="12.7932" x2="10.0272" y2="11.8622" gradientUnits="userSpaceOnUse">
<stop stop-color="#C050E8"/>
<stop offset="1" stop-color="#8022A2"/>
</linearGradient>
<linearGradient id="paint16_linear_33_96" x1="11.8232" y1="13.7522" x2="14.2194" y2="14.5509" gradientUnits="userSpaceOnUse">
<stop stop-color="#C77FF7"/>
<stop offset="1" stop-color="#A22CA0" stop-opacity="0.25"/>
</linearGradient>
<linearGradient id="paint17_linear_33_96" x1="19.9716" y1="14.7909" x2="0.958618" y2="14.7909" gradientUnits="userSpaceOnUse">
<stop stop-color="#A724A5"/>
<stop offset="0.240046" stop-color="#E344E3" stop-opacity="0.76"/>
<stop offset="0.651048" stop-color="#FE7CE6" stop-opacity="0.76"/>
<stop offset="0.756859" stop-color="#EE6FEE" stop-opacity="0.93"/>
<stop offset="1" stop-color="#BE0595" stop-opacity="0.9"/>
</linearGradient>
<clipPath id="clip0_33_96">
<rect width="20.9302" height="20.9302" fill="white" transform="translate(0 4.32568)"/>
</clipPath>
</defs>
</svg>
