<svg width="87" height="30" viewBox="0 0 87 30" fill="none" xmlns="http://www.w3.org/2000/svg">
<path d="M4.19165 8.43159V12.8581H9.43067V15.2956H4.19165V23H1.30598V5.99419H9.76687V8.43159H4.19165ZM15.4555 23H12.7379V3.86496H15.4555V23ZM29.6143 17.4528C29.6143 19.1898 29.082 20.6093 28.0174 21.7113C26.9528 22.8132 25.552 23.3642 23.815 23.3642C22.0967 23.3642 20.6959 22.8132 19.6126 21.7113C18.5293 20.6093 17.9876 19.1991 17.9876 17.4808C17.9876 15.7438 18.5199 14.3243 19.5846 13.2224C20.6492 12.1204 22.05 11.5694 23.787 11.5694C25.524 11.5694 26.9248 12.1204 27.9894 13.2224C29.0727 14.3056 29.6143 15.7158 29.6143 17.4528ZM20.7332 17.5088C20.7332 18.5361 21.0227 19.3766 21.6017 20.0303C22.1807 20.684 22.9278 21.0109 23.843 21.0109C24.7582 21.0109 25.4866 20.6653 26.0283 19.9743C26.5886 19.2645 26.8688 18.4334 26.8688 17.4808C26.8688 16.5096 26.5886 15.6784 26.0283 14.9874C25.468 14.2776 24.7302 13.9228 23.815 13.9228C22.9185 13.9228 22.1807 14.259 21.6017 14.9313C21.0227 15.6037 20.7332 16.4629 20.7332 17.5088ZM36.1535 19.1618L39.0952 11.5694H40.0758L43.1575 19.1338L45.9031 11.9336H48.9009L43.7459 23.2241H42.3731L39.8236 16.136L36.9099 23.2241H35.5091L30.4382 11.9336H33.4359L36.1535 19.1618ZM54.9771 18.9377L57.6946 11.9336H60.7204L55.6214 23.2241H53.9965L48.9256 11.9336H51.9233L54.9771 18.9377ZM65.6114 7.28293C65.6114 7.71251 65.4526 8.08606 65.1351 8.40358C64.8176 8.72109 64.4441 8.87985 64.0145 8.87985C63.5849 8.87985 63.2113 8.72109 62.8938 8.40358C62.5763 8.08606 62.4176 7.71251 62.4176 7.28293C62.4176 6.85335 62.5763 6.4798 62.8938 6.16228C63.2113 5.84477 63.5849 5.68601 64.0145 5.68601C64.4441 5.68601 64.8176 5.84477 65.1351 6.16228C65.4526 6.4798 65.6114 6.85335 65.6114 7.28293ZM65.3873 23H62.6697V11.9336H65.3873V23ZM72.17 23H69.4525V14.371H68.1357V12.1577H69.4525V8.17945H72.17V12.1577H74.3273V14.371H72.17V23Z" fill="black"/>
<path d="M83.8855 12.2577L86.9656 12.2577L79.1228 27.8995L76.0877 27.8995L83.8855 12.2577Z" fill="black"/>
<ellipse cx="78.1183" cy="12.6538" rx="1.63428" ry="1.63428" fill="black"/>
</svg>
