<svg width="877" height="188" viewBox="0 0 877 188" fill="none" xmlns="http://www.w3.org/2000/svg">
<rect width="270.171" height="270.171" rx="15.8303" fill="#17191B" fill-opacity="0.7"/>
<path d="M57.2087 125.897L59.4149 107.511C69.4654 114.62 80.3739 114.865 84.4186 114.498C89.5664 114.13 93.9788 110.453 93.4885 105.673C93.1208 100.648 89.3213 98.4415 84.4186 96.7256C70.6911 91.7003 58.4344 84.714 58.4344 70.006C58.4344 55.2979 68.6074 44.0218 83.1929 43.2864C87.7279 43.0412 93.7337 43.0412 105.01 46.9634L102.804 63.8776C93.1208 59.9555 87.6053 60.0781 84.9088 60.2006C78.6579 60.5683 75.8389 65.1033 76.2066 70.006C76.6969 74.9087 80.9867 77.1149 86.0119 78.8308C99.6169 83.8561 111.383 91.7003 111.383 105.673C111.383 120.258 101.333 131.412 84.9088 132.27C80.0062 132.638 69.0977 132.025 57.2087 125.897ZM166.33 81.037L200.894 42.551H206.409V131.535H188.637L188.759 82.6304L166.33 106.163L143.9 82.6304V131.535H126.128V42.551H131.766L166.33 81.037ZM93.2434 226.535H75.7163V156.426H53.8994V139.022H115.06V156.426H93.2434V226.535ZM168.484 176.037L203.048 137.551H208.564V226.535H190.791L190.914 177.63L168.484 201.163L146.054 177.63V226.535H128.282V137.551H133.92L168.484 176.037Z" fill="#2B2C2D" fill-opacity="0.7"/>
<path d="M308.111 80.596V14.2141H288.904V6.72107H334.706V14.2141H315.604V80.596H308.111ZM347.917 80.596V6.72107H385.699V14.2141H355.41V38.0651H384.749V45.6637H355.41V73.103H386.649V80.596H347.917ZM435.823 81.8624C414.716 81.8624 397.197 64.6601 397.197 43.6585C397.197 22.6569 414.716 5.45465 435.823 5.45465C447.327 5.45465 457.458 10.7314 464.529 18.8577L458.619 23.3957C452.814 17.0636 444.899 13.0532 435.823 13.0532C418.937 13.0532 404.69 26.7728 404.69 43.6585C404.69 60.5442 418.937 74.2638 435.823 74.2638C445.532 74.2638 453.764 69.8313 459.569 62.7605L465.479 67.2985C458.408 76.1635 447.96 81.8624 435.823 81.8624ZM476.538 80.596V6.72107H484.137V38.9094H527.09V6.72107H534.689V80.596H527.09V46.508H484.137V80.596H476.538Z" fill="#202122" fill-opacity="0.7"/>
<path d="M329.06 253.578C294.022 253.578 274.392 232.471 274.392 206.298L315.551 203.132C315.762 210.731 320.195 215.796 329.482 215.796C336.87 215.796 341.302 212.841 341.302 207.987C341.302 202.077 336.447 200.81 317.029 194.267C292.122 186.035 279.247 174.004 279.247 147.62C279.247 117.859 302.465 100.974 328.427 100.974C357.132 100.974 376.129 117.859 378.239 140.866L337.925 145.51C337.714 140.655 334.548 136.645 329.271 136.645C324.627 136.645 321.039 139.6 321.039 144.032C321.039 149.731 324.416 152.475 335.814 156.063C366.631 165.984 384.994 174.849 384.994 203.765C384.994 237.115 362.409 253.578 329.06 253.578ZM397.754 251.256V103.507H497.59V144.876H442.923V159.44H495.691V193.212H442.923V209.886H499.49V251.256H397.754ZM514.214 251.256V103.507H568.037C601.808 103.507 626.293 122.292 626.293 153.953C626.293 172.316 618.061 186.458 604.552 194.9L638.324 251.256H587.878L560.438 204.399H559.383V251.256H514.214ZM559.383 164.928H568.037C575.847 164.928 580.701 160.496 580.701 153.953C580.701 147.409 575.847 142.977 568.037 142.977H559.383V164.928ZM684.314 251.256L629.858 103.507H677.982L709.432 195.322L740.881 103.507H789.005L734.76 251.256H684.314ZM797.428 251.256V103.507H842.598V251.256H797.428ZM931.869 253.578C889.655 253.578 855.25 219.596 855.25 177.381C855.25 134.956 889.655 100.974 931.869 100.974C958.253 100.974 981.471 114.271 995.402 134.534L958.042 159.651C952.343 151.209 942.634 145.721 931.869 145.721C914.35 145.721 900.208 159.863 900.208 177.381C900.208 194.689 914.35 209.042 931.869 209.042C943.267 209.042 953.187 202.921 958.886 193.634L996.246 218.962C982.526 239.859 958.886 253.578 931.869 253.578ZM1006.85 251.256V103.507H1106.69V144.876H1052.02V159.44H1104.79V193.212H1052.02V209.886H1108.59V251.256H1006.85ZM1173.76 253.578C1138.72 253.578 1119.09 232.471 1119.09 206.298L1160.25 203.132C1160.46 210.731 1164.89 215.796 1174.18 215.796C1181.57 215.796 1186 212.841 1186 207.987C1186 202.077 1181.14 200.81 1161.73 194.267C1136.82 186.035 1123.94 174.004 1123.94 147.62C1123.94 117.859 1147.16 100.974 1173.12 100.974C1201.83 100.974 1220.83 117.859 1222.94 140.866L1182.62 145.51C1182.41 140.655 1179.24 136.645 1173.97 136.645C1169.32 136.645 1165.74 139.6 1165.74 144.032C1165.74 149.731 1169.11 152.475 1180.51 156.063C1211.33 165.984 1229.69 174.849 1229.69 203.765C1229.69 237.115 1207.11 253.578 1173.76 253.578Z" fill="#202122" fill-opacity="0.7"/>
</svg>
