<svg width="102" height="27" viewBox="0 0 102 27" fill="none" xmlns="http://www.w3.org/2000/svg">
<path d="M9.83992 7.79041C10.6972 7.79041 11.5305 7.95899 12.3396 8.29613C13.1488 8.63328 13.8135 9.17272 14.3336 9.91445C14.8634 10.6562 15.1283 11.6243 15.1283 12.8187V20H9.99886V13.6423C9.99886 12.9199 9.82547 12.366 9.47869 11.9807C9.13191 11.5857 8.66953 11.3883 8.09156 11.3883C7.71588 11.3883 7.36428 11.4846 7.03677 11.6773C6.70925 11.8699 6.44435 12.1396 6.24206 12.4864C6.04941 12.8332 5.95308 13.2378 5.95308 13.7001V20H0.838055V8.13719H5.95308V9.74106C6.0783 9.42317 6.32394 9.11974 6.68999 8.83075C7.05603 8.53214 7.51359 8.2865 8.06266 8.09384C8.61173 7.89156 9.20415 7.79041 9.83992 7.79041ZM22.4094 26.0109H17.3522V8.13719H22.4527V9.68326C22.6069 9.42317 22.8669 9.14864 23.233 8.85965C23.6087 8.56104 24.0807 8.31058 24.649 8.10829C25.2173 7.89637 25.8531 7.79041 26.5563 7.79041C27.7315 7.79041 28.7237 8.08421 29.5328 8.67181C30.3516 9.24978 30.973 10.0156 31.3968 10.9692C31.8303 11.9229 32.047 12.9584 32.047 14.0758C32.047 15.1932 31.8158 16.2288 31.3534 17.1824C30.8911 18.1361 30.236 18.9019 29.3884 19.4798C28.5407 20.0578 27.5292 20.3468 26.354 20.3468C25.5545 20.3468 24.8754 20.2119 24.3167 19.9422C23.7676 19.6629 23.3341 19.3546 23.0162 19.0175C22.708 18.6707 22.5057 18.4058 22.4094 18.2227V26.0109ZM27.0476 14.0758C27.0476 13.652 26.9464 13.2667 26.7441 12.9199C26.5515 12.5635 26.2818 12.2841 25.935 12.0818C25.5882 11.8699 25.1981 11.7639 24.7646 11.7639C24.3119 11.7639 23.9121 11.8699 23.5653 12.0818C23.2185 12.2841 22.944 12.5635 22.7417 12.9199C22.5491 13.2667 22.4527 13.652 22.4527 14.0758C22.4527 14.4997 22.5491 14.8898 22.7417 15.2462C22.944 15.593 23.2185 15.8675 23.5653 16.0698C23.9121 16.2721 24.3119 16.3732 24.7646 16.3732C25.1981 16.3732 25.5882 16.2721 25.935 16.0698C26.2818 15.8675 26.5515 15.593 26.7441 15.2462C26.9464 14.8898 27.0476 14.4997 27.0476 14.0758ZM39.3048 7.79041C40.0176 7.79041 40.6775 7.85784 41.2843 7.9927C41.8912 8.11793 42.4018 8.26242 42.816 8.42618C43.2398 8.58993 43.5192 8.72961 43.654 8.8452L42.3969 11.0559C42.2043 10.9018 41.8575 10.7188 41.3566 10.5069C40.8653 10.2949 40.3163 10.189 39.7094 10.189C39.1603 10.189 38.6979 10.2853 38.3223 10.478C37.9466 10.661 37.7587 10.9403 37.7587 11.316C37.7587 11.6917 37.961 11.9903 38.3656 12.2119C38.7702 12.4334 39.3337 12.6261 40.0562 12.7898C40.663 12.9151 41.2603 13.1077 41.8479 13.3678C42.4355 13.6183 42.9219 13.9843 43.3072 14.4659C43.6926 14.938 43.8852 15.5689 43.8852 16.3588C43.8852 17.1391 43.7166 17.7893 43.3795 18.3094C43.052 18.82 42.6137 19.2246 42.0646 19.5232C41.5155 19.8218 40.9135 20.0337 40.2585 20.1589C39.6034 20.2842 38.9532 20.3468 38.3078 20.3468C37.4698 20.3468 36.7328 20.2649 36.0971 20.1011C35.4613 19.947 34.9363 19.7688 34.5221 19.5665C34.1175 19.3546 33.8286 19.1764 33.6552 19.0319L34.9122 16.5755C35.1627 16.7971 35.5721 17.0427 36.1404 17.3124C36.7184 17.5725 37.3397 17.7026 38.0044 17.7026C38.6979 17.7026 39.2422 17.5822 39.6371 17.3413C40.0417 17.1005 40.244 16.7778 40.244 16.3732C40.244 16.0746 40.1477 15.8338 39.955 15.6508C39.7624 15.4581 39.4975 15.2992 39.1603 15.174C38.8232 15.0487 38.4282 14.938 37.9755 14.8416C37.5613 14.7549 37.1374 14.6297 36.7039 14.4659C36.2705 14.2926 35.8659 14.0662 35.4902 13.7868C35.1145 13.5075 34.8111 13.1607 34.5799 12.7465C34.3487 12.3226 34.2331 11.8169 34.2331 11.2293C34.2331 10.478 34.474 9.85183 34.9556 9.35093C35.4372 8.84039 36.0634 8.45508 36.834 8.19499C37.6046 7.92527 38.4282 7.79041 39.3048 7.79041ZM44.09 8.13719H46.2285V3.26781H49.8697V8.13719H52.6728V11.186H49.8697V15.4774C49.8697 16.0457 49.9612 16.4888 50.1442 16.8067C50.3272 17.115 50.6162 17.2691 51.0112 17.2691C51.3098 17.2691 51.5554 17.2113 51.7481 17.0957C51.9407 16.9705 52.0563 16.8838 52.0948 16.8356L53.3953 19.4654C53.3375 19.5232 53.1496 19.6243 52.8318 19.7688C52.5235 19.9133 52.1237 20.0433 51.6325 20.1589C51.1508 20.2842 50.6066 20.3468 49.9997 20.3468C48.9112 20.3468 48.0105 20.0337 47.2977 19.4076C46.5849 18.7718 46.2285 17.7893 46.2285 16.4599V11.186H44.09V8.13719ZM59.8999 20.3468C58.638 20.3468 57.511 20.0771 56.5188 19.5376C55.5362 18.9982 54.7656 18.2613 54.2069 17.3269C53.6482 16.3829 53.3689 15.3088 53.3689 14.1047C53.3689 12.9006 53.6482 11.8266 54.2069 10.8825C54.7656 9.9289 55.5362 9.17754 56.5188 8.62847C57.511 8.06976 58.638 7.79041 59.8999 7.79041C61.1714 7.79041 62.2937 8.06976 63.2666 8.62847C64.2395 9.17754 65.0005 9.9289 65.5495 10.8825C66.0986 11.8266 66.3732 12.9006 66.3732 14.1047C66.3732 15.3088 66.0986 16.3829 65.5495 17.3269C65.0005 18.2613 64.2395 18.9982 63.2666 19.5376C62.2937 20.0771 61.1714 20.3468 59.8999 20.3468ZM59.8999 17.298C60.5068 17.298 61.0318 17.1631 61.4749 16.8934C61.9276 16.6141 62.2744 16.2336 62.5152 15.7519C62.7657 15.2607 62.8909 14.7068 62.8909 14.0903C62.8909 13.4738 62.7657 12.9199 62.5152 12.4286C62.2744 11.9373 61.9276 11.552 61.4749 11.2727C61.0318 10.9837 60.5068 10.8392 59.8999 10.8392C59.293 10.8392 58.7632 10.9837 58.3105 11.2727C57.8674 11.552 57.5206 11.9373 57.2701 12.4286C57.0197 12.9199 56.8945 13.4738 56.8945 14.0903C56.8945 14.7068 57.0197 15.2607 57.2701 15.7519C57.5206 16.2336 57.8674 16.6141 58.3105 16.8934C58.7632 17.1631 59.293 17.298 59.8999 17.298ZM73.7926 17.428C74.4187 17.428 74.9293 17.3221 75.3242 17.1102C75.7192 16.8982 75.9793 16.7393 76.1045 16.6333L77.8095 19.1619C77.6746 19.2679 77.4242 19.4172 77.0581 19.6099C76.6921 19.8025 76.2249 19.9711 75.6566 20.1156C75.0979 20.2697 74.4573 20.3468 73.7348 20.3468C72.4825 20.3468 71.3603 20.0963 70.3681 19.5954C69.376 19.0849 68.5909 18.3624 68.0129 17.428C67.4446 16.484 67.1604 15.3618 67.1604 14.0614C67.1604 12.7513 67.4446 11.6291 68.0129 10.6947C68.5909 9.76032 69.376 9.04268 70.3681 8.54177C71.3603 8.04086 72.4825 7.79041 73.7348 7.79041C74.4476 7.79041 75.0786 7.86747 75.6277 8.0216C76.1864 8.17572 76.6535 8.35393 77.0292 8.55622C77.4049 8.74888 77.665 8.90782 77.8095 9.03304L76.0611 11.5761C75.9937 11.499 75.8637 11.3931 75.671 11.2582C75.4783 11.1234 75.2231 10.9981 74.9052 10.8825C74.5969 10.767 74.2261 10.7092 73.7926 10.7092C73.2628 10.7092 72.7571 10.8488 72.2754 11.1282C71.8034 11.4075 71.4181 11.7977 71.1195 12.2986C70.8209 12.7995 70.6716 13.3871 70.6716 14.0614C70.6716 14.7357 70.8209 15.3281 71.1195 15.8386C71.4181 16.3395 71.8034 16.7297 72.2754 17.009C72.7571 17.2884 73.2628 17.428 73.7926 17.428ZM86.4899 8.13719H90.709L84.9149 13.8013L91.2292 20H86.9089L81.9817 15.0439V20H78.3116V0.117877H81.9817V12.4864L86.4899 8.13719ZM96.4582 7.79041C97.1711 7.79041 97.8309 7.85784 98.4378 7.9927C99.0446 8.11793 99.5552 8.26242 99.9694 8.42618C100.393 8.58993 100.673 8.72961 100.807 8.8452L99.5504 11.0559C99.3577 10.9018 99.0109 10.7188 98.51 10.5069C98.0187 10.2949 97.4697 10.189 96.8628 10.189C96.3137 10.189 95.8514 10.2853 95.4757 10.478C95.1 10.661 94.9122 10.9403 94.9122 11.316C94.9122 11.6917 95.1145 11.9903 95.519 12.2119C95.9236 12.4334 96.4871 12.6261 97.2096 12.7898C97.8165 12.9151 98.4137 13.1077 99.0013 13.3678C99.5889 13.6183 100.075 13.9843 100.461 14.4659C100.846 14.938 101.039 15.5689 101.039 16.3588C101.039 17.1391 100.87 17.7893 100.533 18.3094C100.205 18.82 99.7671 19.2246 99.218 19.5232C98.669 19.8218 98.0669 20.0337 97.4119 20.1589C96.7568 20.2842 96.1066 20.3468 95.4612 20.3468C94.6232 20.3468 93.8863 20.2649 93.2505 20.1011C92.6147 19.947 92.0897 19.7688 91.6755 19.5665C91.271 19.3546 90.982 19.1764 90.8086 19.0319L92.0657 16.5755C92.3161 16.7971 92.7255 17.0427 93.2939 17.3124C93.8718 17.5725 94.4931 17.7026 95.1578 17.7026C95.8514 17.7026 96.3956 17.5822 96.7906 17.3413C97.1951 17.1005 97.3974 16.7778 97.3974 16.3732C97.3974 16.0746 97.3011 15.8338 97.1084 15.6508C96.9158 15.4581 96.6509 15.2992 96.3137 15.174C95.9766 15.0487 95.5816 14.938 95.1289 14.8416C94.7147 14.7549 94.2908 14.6297 93.8574 14.4659C93.4239 14.2926 93.0193 14.0662 92.6436 13.7868C92.268 13.5075 91.9645 13.1607 91.7333 12.7465C91.5021 12.3226 91.3866 11.8169 91.3866 11.2293C91.3866 10.478 91.6274 9.85183 92.109 9.35093C92.5907 8.84039 93.2168 8.45508 93.9874 8.19499C94.758 7.92527 95.5816 7.79041 96.4582 7.79041Z" fill="black"/>
</svg>
