<svg width="136" height="26" viewBox="0 0 136 26" fill="none" xmlns="http://www.w3.org/2000/svg">
<path d="M6.44 19.168C5.272 19.168 4.216 18.968 3.272 18.568C2.344 18.168 1.608 17.592 1.064 16.84C0.52 16.088 0.24 15.2 0.224 14.176H3.824C3.872 14.864 4.112 15.408 4.544 15.808C4.992 16.208 5.6 16.408 6.368 16.408C7.152 16.408 7.768 16.224 8.216 15.856C8.664 15.472 8.888 14.976 8.888 14.368C8.888 13.872 8.736 13.464 8.432 13.144C8.128 12.824 7.744 12.576 7.28 12.4C6.832 12.208 6.208 12 5.408 11.776C4.32 11.456 3.432 11.144 2.744 10.84C2.072 10.52 1.488 10.048 0.992 9.424C0.512 8.784 0.272 7.936 0.272 6.88C0.272 5.888 0.52 5.024 1.016 4.288C1.512 3.552 2.208 2.992 3.104 2.608C4 2.208 5.024 2.008 6.176 2.008C7.904 2.008 9.304 2.432 10.376 3.28C11.464 4.112 12.064 5.28 12.176 6.784H8.48C8.448 6.208 8.2 5.736 7.736 5.368C7.288 4.984 6.688 4.792 5.936 4.792C5.28 4.792 4.752 4.96 4.352 5.296C3.968 5.632 3.776 6.12 3.776 6.76C3.776 7.208 3.92 7.584 4.208 7.888C4.512 8.176 4.88 8.416 5.312 8.608C5.76 8.784 6.384 8.992 7.184 9.232C8.272 9.552 9.16 9.872 9.848 10.192C10.536 10.512 11.128 10.992 11.624 11.632C12.12 12.272 12.368 13.112 12.368 14.152C12.368 15.048 12.136 15.88 11.672 16.648C11.208 17.416 10.528 18.032 9.632 18.496C8.736 18.944 7.672 19.168 6.44 19.168ZM13.697 12.304C13.697 10.96 13.961 9.768 14.489 8.728C15.033 7.688 15.761 6.888 16.673 6.328C17.601 5.768 18.633 5.488 19.769 5.488C20.761 5.488 21.625 5.688 22.361 6.088C23.113 6.488 23.713 6.992 24.161 7.6V5.704H27.545V19H24.161V17.056C23.729 17.68 23.129 18.2 22.361 18.616C21.609 19.016 20.737 19.216 19.745 19.216C18.625 19.216 17.601 18.928 16.673 18.352C15.761 17.776 15.033 16.968 14.489 15.928C13.961 14.872 13.697 13.664 13.697 12.304ZM24.161 12.352C24.161 11.536 24.001 10.84 23.681 10.264C23.361 9.672 22.929 9.224 22.385 8.92C21.841 8.6 21.257 8.44 20.633 8.44C20.009 8.44 19.433 8.592 18.905 8.896C18.377 9.2 17.945 9.648 17.609 10.24C17.289 10.816 17.129 11.504 17.129 12.304C17.129 13.104 17.289 13.808 17.609 14.416C17.945 15.008 18.377 15.464 18.905 15.784C19.449 16.104 20.025 16.264 20.633 16.264C21.257 16.264 21.841 16.112 22.385 15.808C22.929 15.488 23.361 15.04 23.681 14.464C24.001 13.872 24.161 13.168 24.161 12.352ZM37.4746 5.512C39.0586 5.512 40.3386 6.016 41.3146 7.024C42.2906 8.016 42.7786 9.408 42.7786 11.2V19H39.4186V11.656C39.4186 10.6 39.1546 9.792 38.6266 9.232C38.0986 8.656 37.3786 8.368 36.4666 8.368C35.5386 8.368 34.8026 8.656 34.2586 9.232C33.7306 9.792 33.4666 10.6 33.4666 11.656V19H30.1066V5.704H33.4666V7.36C33.9146 6.784 34.4826 6.336 35.1706 6.016C35.8746 5.68 36.6426 5.512 37.4746 5.512ZM57.8058 5.704V19H54.4218V17.32C53.9898 17.896 53.4218 18.352 52.7178 18.688C52.0298 19.008 51.2778 19.168 50.4618 19.168C49.4218 19.168 48.5018 18.952 47.7018 18.52C46.9018 18.072 46.2698 17.424 45.8058 16.576C45.3578 15.712 45.1338 14.688 45.1338 13.504V5.704H48.4938V13.024C48.4938 14.08 48.7578 14.896 49.2858 15.472C49.8138 16.032 50.5338 16.312 51.4458 16.312C52.3738 16.312 53.1018 16.032 53.6298 15.472C54.1578 14.896 54.4218 14.08 54.4218 13.024V5.704H57.8058ZM64.5358 12.304C64.5358 10.96 64.7998 9.768 65.3278 8.728C65.8718 7.688 66.6078 6.888 67.5358 6.328C68.4638 5.768 69.4958 5.488 70.6318 5.488C71.4958 5.488 72.3198 5.68 73.1038 6.064C73.8878 6.432 74.5118 6.928 74.9758 7.552V1.24H78.3838V19H74.9758V17.032C74.5598 17.688 73.9758 18.216 73.2238 18.616C72.4718 19.016 71.5998 19.216 70.6078 19.216C69.4878 19.216 68.4638 18.928 67.5358 18.352C66.6078 17.776 65.8718 16.968 65.3278 15.928C64.7998 14.872 64.5358 13.664 64.5358 12.304ZM74.9998 12.352C74.9998 11.536 74.8398 10.84 74.5198 10.264C74.1998 9.672 73.7678 9.224 73.2238 8.92C72.6798 8.6 72.0958 8.44 71.4718 8.44C70.8478 8.44 70.2718 8.592 69.7438 8.896C69.2158 9.2 68.7838 9.648 68.4478 10.24C68.1278 10.816 67.9678 11.504 67.9678 12.304C67.9678 13.104 68.1278 13.808 68.4478 14.416C68.7838 15.008 69.2158 15.464 69.7438 15.784C70.2878 16.104 70.8638 16.264 71.4718 16.264C72.0958 16.264 72.6798 16.112 73.2238 15.808C73.7678 15.488 74.1998 15.04 74.5198 14.464C74.8398 13.872 74.9998 13.168 74.9998 12.352ZM82.6494 4.12C82.0574 4.12 81.5614 3.936 81.1614 3.568C80.7774 3.184 80.5854 2.712 80.5854 2.152C80.5854 1.592 80.7774 1.128 81.1614 0.759999C81.5614 0.375999 82.0574 0.183999 82.6494 0.183999C83.2414 0.183999 83.7294 0.375999 84.1134 0.759999C84.5134 1.128 84.7134 1.592 84.7134 2.152C84.7134 2.712 84.5134 3.184 84.1134 3.568C83.7294 3.936 83.2414 4.12 82.6494 4.12ZM84.3054 5.704V19H80.9454V5.704H84.3054ZM92.1131 5.488C93.1051 5.488 93.9771 5.688 94.7291 6.088C95.4811 6.472 96.0731 6.976 96.5051 7.6V5.704H99.8891V19.096C99.8891 20.328 99.6411 21.424 99.1451 22.384C98.6491 23.36 97.9051 24.128 96.9131 24.688C95.9211 25.264 94.7211 25.552 93.3131 25.552C91.4251 25.552 89.8731 25.112 88.6571 24.232C87.4571 23.352 86.7771 22.152 86.6171 20.632H89.9531C90.1291 21.24 90.5051 21.72 91.0811 22.072C91.6731 22.44 92.3851 22.624 93.2171 22.624C94.1931 22.624 94.9851 22.328 95.5931 21.736C96.2011 21.16 96.5051 20.28 96.5051 19.096V17.032C96.0731 17.656 95.4731 18.176 94.7051 18.592C93.9531 19.008 93.0891 19.216 92.1131 19.216C90.9931 19.216 89.9691 18.928 89.0411 18.352C88.1131 17.776 87.3771 16.968 86.8331 15.928C86.3051 14.872 86.0411 13.664 86.0411 12.304C86.0411 10.96 86.3051 9.768 86.8331 8.728C87.3771 7.688 88.1051 6.888 89.0171 6.328C89.9451 5.768 90.9771 5.488 92.1131 5.488ZM96.5051 12.352C96.5051 11.536 96.3451 10.84 96.0251 10.264C95.7051 9.672 95.2731 9.224 94.7291 8.92C94.1851 8.6 93.6011 8.44 92.9771 8.44C92.3531 8.44 91.7771 8.592 91.2491 8.896C90.7211 9.2 90.2891 9.648 89.9531 10.24C89.6331 10.816 89.4731 11.504 89.4731 12.304C89.4731 13.104 89.6331 13.808 89.9531 14.416C90.2891 15.008 90.7211 15.464 91.2491 15.784C91.7931 16.104 92.3691 16.264 92.9771 16.264C93.6011 16.264 94.1851 16.112 94.7291 15.808C95.2731 15.488 95.7051 15.04 96.0251 14.464C96.3451 13.872 96.5051 13.168 96.5051 12.352ZM104.155 4.12C103.563 4.12 103.067 3.936 102.667 3.568C102.283 3.184 102.091 2.712 102.091 2.152C102.091 1.592 102.283 1.128 102.667 0.759999C103.067 0.375999 103.563 0.183999 104.155 0.183999C104.747 0.183999 105.235 0.375999 105.619 0.759999C106.019 1.128 106.219 1.592 106.219 2.152C106.219 2.712 106.019 3.184 105.619 3.568C105.235 3.936 104.747 4.12 104.155 4.12ZM105.811 5.704V19H102.451V5.704H105.811ZM112.322 8.464V14.896C112.322 15.344 112.426 15.672 112.634 15.88C112.858 16.072 113.226 16.168 113.738 16.168H115.298V19H113.186C110.354 19 108.938 17.624 108.938 14.872V8.464H107.354V5.704H108.938V2.416H112.322V5.704H115.298V8.464H112.322ZM116.131 12.304C116.131 10.96 116.395 9.768 116.923 8.728C117.467 7.688 118.195 6.888 119.107 6.328C120.035 5.768 121.067 5.488 122.203 5.488C123.195 5.488 124.059 5.688 124.795 6.088C125.547 6.488 126.147 6.992 126.595 7.6V5.704H129.979V19H126.595V17.056C126.163 17.68 125.563 18.2 124.795 18.616C124.043 19.016 123.171 19.216 122.179 19.216C121.059 19.216 120.035 18.928 119.107 18.352C118.195 17.776 117.467 16.968 116.923 15.928C116.395 14.872 116.131 13.664 116.131 12.304ZM126.595 12.352C126.595 11.536 126.435 10.84 126.115 10.264C125.795 9.672 125.363 9.224 124.819 8.92C124.275 8.6 123.691 8.44 123.067 8.44C122.443 8.44 121.867 8.592 121.339 8.896C120.811 9.2 120.379 9.648 120.043 10.24C119.723 10.816 119.563 11.504 119.563 12.304C119.563 13.104 119.723 13.808 120.043 14.416C120.379 15.008 120.811 15.464 121.339 15.784C121.883 16.104 122.459 16.264 123.067 16.264C123.691 16.264 124.275 16.112 124.819 15.808C125.363 15.488 125.795 15.04 126.115 14.464C126.435 13.872 126.595 13.168 126.595 12.352ZM135.901 1.24V19H132.541V1.24H135.901Z" fill="#101920"/>
</svg>
